<mxfile host="app.diagrams.net" modified="2024-02-04T06:01:09.514Z" agent="Mozilla/5.0 (Windows NT 10.0; Win64; x64) AppleWebKit/537.36 (KHTML, like Gecko) Chrome/121.0.0.0 Safari/537.36" etag="R3lR7UWGln1KEWVWQEms" version="23.1.1" type="github">
  <diagram id="rNkLMtBMtRhH9o9BZkSG" name="第 1 页">
    <mxGraphModel dx="880" dy="444" grid="1" gridSize="12" guides="0" tooltips="1" connect="1" arrows="1" fold="1" page="1" pageScale="1" pageWidth="827" pageHeight="1169" math="0" shadow="0">
      <root>
        <mxCell id="0" />
        <mxCell id="1" parent="0" />
        <mxCell id="PNgQcuH5O2GfZtA-ZD3K-21" value="&lt;font color=&quot;#0000ff&quot; size=&quot;1&quot;&gt;&lt;b style=&quot;font-size: 16px&quot;&gt;决策项&lt;/b&gt;&lt;/font&gt;" style="shape=umlFrame;whiteSpace=wrap;html=1;rounded=1;shadow=0;fillColor=none;dashed=1;width=96;height=36;dashPattern=1 1;" parent="1" vertex="1">
          <mxGeometry x="648" y="192" width="72" height="48" as="geometry" />
        </mxCell>
        <mxCell id="PNgQcuH5O2GfZtA-ZD3K-19" value="&lt;font color=&quot;#0000ff&quot; size=&quot;1&quot;&gt;&lt;b style=&quot;font-size: 16px&quot;&gt;要 求&lt;/b&gt;&lt;/font&gt;" style="shape=umlFrame;whiteSpace=wrap;html=1;rounded=1;shadow=0;fillColor=none;dashed=1;width=120;height=36;dashPattern=1 1;swimlaneFillColor=none;" parent="1" vertex="1">
          <mxGeometry x="516" y="192" width="85" height="48" as="geometry" />
        </mxCell>
        <mxCell id="IXMgG3q6kRx1LZ4o9cpP-1" value="&lt;font style=&quot;&quot;&gt;&lt;font color=&quot;#0000ff&quot; style=&quot;font-size: 24px;&quot;&gt;数字化&lt;/font&gt;&lt;font style=&quot;font-size: 24px;&quot; color=&quot;#3333ff&quot;&gt;标准&lt;/font&gt;&lt;span style=&quot;color: rgb(0, 0, 0); font-weight: 400;&quot;&gt;&lt;span style=&quot;font-size: 24px;&quot;&gt; &lt;/span&gt;&lt;font style=&quot;font-size: 20px;&quot;&gt;&lt;font style=&quot;&quot;&gt;/&lt;/font&gt; &lt;font style=&quot;&quot;&gt;规范&lt;/font&gt;&lt;/font&gt;&lt;/span&gt;&lt;/font&gt;" style="swimlane;align=center;verticalAlign=top;childLayout=stackLayout;horizontal=1;horizontalStack=0;resizeParent=1;resizeParentMax=0;resizeLast=0;collapsible=1;marginBottom=0;rounded=1;fontSize=12;strokeColor=#56517e;shadow=0;arcSize=10;startSize=48;html=1;fillColor=#d0cee2;" parent="1" vertex="1">
          <mxGeometry x="348" y="36" width="252" height="50" as="geometry">
            <mxRectangle x="250" y="140" width="90" height="30" as="alternateBounds" />
          </mxGeometry>
        </mxCell>
        <mxCell id="WiJGEHUSFE_Ue6j2h8QV-4" style="orthogonalLoop=1;jettySize=auto;elbow=vertical;html=1;fontFamily=Times New Roman;fontSize=16;endArrow=open;endFill=0;endSize=6;sourcePerimeterSpacing=0;targetPerimeterSpacing=6;strokeColor=default;strokeWidth=0.5;startSize=0;entryX=0;entryY=0;entryDx=90;entryDy=6;entryPerimeter=0;" parent="1" target="WiJGEHUSFE_Ue6j2h8QV-26" edge="1">
          <mxGeometry x="284" y="224" as="geometry">
            <mxPoint x="384" y="84" as="sourcePoint" />
            <mxPoint x="312" y="180" as="targetPoint" />
          </mxGeometry>
        </mxCell>
        <mxCell id="WiJGEHUSFE_Ue6j2h8QV-11" value="focusOn" style="edgeLabel;html=1;align=center;verticalAlign=middle;resizable=0;points=[];" parent="WiJGEHUSFE_Ue6j2h8QV-4" vertex="1" connectable="0">
          <mxGeometry relative="1" as="geometry">
            <mxPoint x="-7" y="4" as="offset" />
          </mxGeometry>
        </mxCell>
        <mxCell id="WiJGEHUSFE_Ue6j2h8QV-14" value="&lt;p style=&quot;margin: 4px 0px 0px&quot;&gt;&lt;span style=&quot;font-size: 14px;&quot;&gt;&lt;font style=&quot;&quot; color=&quot;#1a1a1a&quot;&gt;&lt;b&gt;环境 &lt;/b&gt;/ 设备&lt;/font&gt;&lt;/span&gt;&lt;/p&gt;&lt;p style=&quot;margin: 4px 0px 0px&quot;&gt;&lt;span style=&quot;font-size: 14px;&quot;&gt;&lt;font style=&quot;&quot; color=&quot;#1a1a1a&quot;&gt;/ 方法&lt;/font&gt;&lt;/span&gt;&lt;/p&gt;&lt;hr size=&quot;1&quot;&gt;&lt;div style=&quot;height: 2px&quot;&gt;&lt;/div&gt;" style="verticalAlign=top;align=center;overflow=fill;fontSize=12;fontFamily=Helvetica;html=1;rounded=1;shadow=0;fillColor=none;strokeColor=#0000FF;" parent="1" vertex="1">
          <mxGeometry x="386" y="192" width="84" height="48" as="geometry" />
        </mxCell>
        <mxCell id="WiJGEHUSFE_Ue6j2h8QV-15" style="orthogonalLoop=1;jettySize=auto;elbow=vertical;html=1;entryX=0.5;entryY=0;entryDx=0;entryDy=0;fontFamily=Times New Roman;fontSize=16;endArrow=open;endFill=0;endSize=6;sourcePerimeterSpacing=0;targetPerimeterSpacing=6;strokeColor=default;strokeWidth=0.5;startSize=0;exitX=0.413;exitY=0.96;exitDx=0;exitDy=0;exitPerimeter=0;" parent="1" target="WiJGEHUSFE_Ue6j2h8QV-14" edge="1">
          <mxGeometry x="330" y="224" as="geometry">
            <mxPoint x="428.076" y="84" as="sourcePoint" />
            <mxPoint x="380" y="180" as="targetPoint" />
          </mxGeometry>
        </mxCell>
        <mxCell id="WiJGEHUSFE_Ue6j2h8QV-16" value="hasRelativeSubject" style="edgeLabel;html=1;align=center;verticalAlign=middle;resizable=0;points=[];" parent="WiJGEHUSFE_Ue6j2h8QV-15" vertex="1" connectable="0">
          <mxGeometry relative="1" as="geometry">
            <mxPoint y="1" as="offset" />
          </mxGeometry>
        </mxCell>
        <mxCell id="WiJGEHUSFE_Ue6j2h8QV-18" style="orthogonalLoop=1;jettySize=auto;elbow=vertical;html=1;entryX=0.5;entryY=0;entryDx=0;entryDy=0;fontFamily=Times New Roman;fontSize=16;endArrow=open;endFill=0;endSize=6;sourcePerimeterSpacing=0;targetPerimeterSpacing=6;strokeColor=default;strokeWidth=0.5;startSize=0;entryPerimeter=0;exitX=0.521;exitY=0.994;exitDx=0;exitDy=0;exitPerimeter=0;" parent="1" source="IXMgG3q6kRx1LZ4o9cpP-1" target="PNgQcuH5O2GfZtA-ZD3K-19" edge="1">
          <mxGeometry x="382" y="236" as="geometry">
            <mxPoint x="480" y="120" as="sourcePoint" />
            <mxPoint x="480" y="204" as="targetPoint" />
          </mxGeometry>
        </mxCell>
        <mxCell id="WiJGEHUSFE_Ue6j2h8QV-19" value="&lt;font style=&quot;font-size: 11px;&quot;&gt;hasRequirement&lt;/font&gt;" style="edgeLabel;html=1;align=center;verticalAlign=middle;resizable=0;points=[];" parent="WiJGEHUSFE_Ue6j2h8QV-18" vertex="1" connectable="0">
          <mxGeometry relative="1" as="geometry">
            <mxPoint x="21" y="1" as="offset" />
          </mxGeometry>
        </mxCell>
        <mxCell id="WiJGEHUSFE_Ue6j2h8QV-20" style="orthogonalLoop=1;jettySize=auto;elbow=vertical;html=1;entryX=0.495;entryY=-0.059;entryDx=0;entryDy=0;fontFamily=Times New Roman;fontSize=16;endArrow=open;endFill=0;endSize=6;sourcePerimeterSpacing=0;targetPerimeterSpacing=6;strokeColor=default;strokeWidth=0.5;startSize=0;entryPerimeter=0;exitX=0.817;exitY=0.98;exitDx=0;exitDy=0;exitPerimeter=0;" parent="1" source="IXMgG3q6kRx1LZ4o9cpP-1" target="PNgQcuH5O2GfZtA-ZD3K-21" edge="1">
          <mxGeometry x="394" y="248" as="geometry">
            <mxPoint x="552" y="108" as="sourcePoint" />
            <mxPoint x="588" y="192" as="targetPoint" />
          </mxGeometry>
        </mxCell>
        <mxCell id="WiJGEHUSFE_Ue6j2h8QV-21" value="&lt;font style=&quot;font-size: 11px;&quot;&gt;hasDecision&lt;/font&gt;" style="edgeLabel;html=1;align=center;verticalAlign=middle;resizable=0;points=[];" parent="WiJGEHUSFE_Ue6j2h8QV-20" vertex="1" connectable="0">
          <mxGeometry relative="1" as="geometry">
            <mxPoint x="10" y="4" as="offset" />
          </mxGeometry>
        </mxCell>
        <mxCell id="WiJGEHUSFE_Ue6j2h8QV-26" value="&lt;font style=&quot;font-weight: bold; font-size: 15px;&quot; color=&quot;#0000ff&quot;&gt;产 品&lt;/font&gt;&lt;span style=&quot;color: rgb(51, 51, 51); font-size: 13px; font-weight: bold;&quot;&gt;&amp;nbsp;&amp;nbsp;&lt;/span&gt;&lt;span style=&quot;color: rgb(51, 51, 51); font-size: 13px;&quot;&gt;/&lt;/span&gt;&lt;span style=&quot;color: rgb(51, 51, 51); font-size: 13px; font-weight: bold;&quot;&gt;&amp;nbsp;&lt;/span&gt;&lt;font style=&quot;font-size: 12px; color: rgb(51, 51, 51);&quot;&gt;&lt;font style=&quot;font-size: 13px;&quot;&gt;过程&lt;/font&gt;&lt;/font&gt;" style="shape=cube;whiteSpace=wrap;html=1;boundedLbl=1;backgroundOutline=1;darkOpacity=0.05;darkOpacity2=0.1;fontSize=10;fontColor=#1A1A1A;fillColor=#D5E8D4;size=12;" parent="1" vertex="1">
          <mxGeometry x="192" y="180" width="96" height="48" as="geometry" />
        </mxCell>
        <mxCell id="WiJGEHUSFE_Ue6j2h8QV-30" value="&lt;span style=&quot;color: rgb(0, 0, 0); font-size: 14px;&quot;&gt;核心属性&lt;/span&gt;" style="ellipse;whiteSpace=wrap;html=1;fontSize=10;fillColor=#fff2cc;strokeColor=#d6b656;" parent="1" vertex="1">
          <mxGeometry x="221" y="312" width="72" height="44" as="geometry" />
        </mxCell>
        <mxCell id="WiJGEHUSFE_Ue6j2h8QV-31" style="orthogonalLoop=1;jettySize=auto;elbow=vertical;html=1;fontFamily=Times New Roman;fontSize=16;endArrow=open;endFill=0;endSize=6;sourcePerimeterSpacing=0;targetPerimeterSpacing=6;strokeColor=default;strokeWidth=0.5;startSize=0;entryX=0.5;entryY=0;entryDx=0;entryDy=0;exitX=0.688;exitY=1;exitDx=0;exitDy=0;exitPerimeter=0;" parent="1" source="WiJGEHUSFE_Ue6j2h8QV-26" target="WiJGEHUSFE_Ue6j2h8QV-30" edge="1">
          <mxGeometry x="297" y="300" as="geometry">
            <mxPoint x="348" y="228" as="sourcePoint" />
            <mxPoint x="325" y="312" as="targetPoint" />
          </mxGeometry>
        </mxCell>
        <mxCell id="WiJGEHUSFE_Ue6j2h8QV-32" value="hasProperty" style="edgeLabel;html=1;align=center;verticalAlign=middle;resizable=0;points=[];" parent="WiJGEHUSFE_Ue6j2h8QV-31" vertex="1" connectable="0">
          <mxGeometry relative="1" as="geometry">
            <mxPoint x="-2" as="offset" />
          </mxGeometry>
        </mxCell>
        <mxCell id="WiJGEHUSFE_Ue6j2h8QV-29" value="&lt;span style=&quot;color: rgb(0, 0, 0); font-size: 14px;&quot;&gt;相关属性&lt;/span&gt;" style="ellipse;whiteSpace=wrap;html=1;fontSize=10;fillColor=#f5f5f5;strokeColor=#666666;fontColor=#333333;" parent="1" vertex="1">
          <mxGeometry x="392" y="311" width="70" height="44" as="geometry" />
        </mxCell>
        <mxCell id="1Imt1nqdWS62U7wLwZbE-1" style="orthogonalLoop=1;jettySize=auto;elbow=vertical;html=1;fontFamily=Times New Roman;fontSize=16;endArrow=open;endFill=0;endSize=6;sourcePerimeterSpacing=0;targetPerimeterSpacing=6;strokeColor=default;strokeWidth=0.5;startSize=0;entryX=0.5;entryY=0;entryDx=0;entryDy=0;exitX=0.5;exitY=1;exitDx=0;exitDy=0;" parent="1" source="WiJGEHUSFE_Ue6j2h8QV-14" target="WiJGEHUSFE_Ue6j2h8QV-29" edge="1">
          <mxGeometry x="460" y="312" as="geometry">
            <mxPoint x="421.048" y="240" as="sourcePoint" />
            <mxPoint x="420" y="324" as="targetPoint" />
          </mxGeometry>
        </mxCell>
        <mxCell id="1Imt1nqdWS62U7wLwZbE-2" value="hasProperty" style="edgeLabel;html=1;align=center;verticalAlign=middle;resizable=0;points=[];" parent="1Imt1nqdWS62U7wLwZbE-1" vertex="1" connectable="0">
          <mxGeometry relative="1" as="geometry">
            <mxPoint x="-2" y="-5" as="offset" />
          </mxGeometry>
        </mxCell>
        <mxCell id="G6fozAkBuVMYMVcLO_uP-1" value="&lt;font size=&quot;1&quot;&gt;&lt;span style=&quot;font-size: 13px&quot;&gt;&lt;b&gt;验证规则&lt;/b&gt;&lt;/span&gt;&lt;/font&gt;" style="shape=umlFrame;whiteSpace=wrap;html=1;rounded=1;shadow=0;fillColor=default;width=72;height=24;strokeWidth=0.5;swimlaneFillColor=#efefff;" parent="1" vertex="1">
          <mxGeometry x="528" y="295" width="62" height="24" as="geometry" />
        </mxCell>
        <mxCell id="G6fozAkBuVMYMVcLO_uP-2" value="&lt;b style=&quot;font-size: 13px;&quot;&gt;判定规则&lt;/b&gt;" style="shape=umlFrame;whiteSpace=wrap;html=1;rounded=1;shadow=0;fillColor=default;width=72;height=24;strokeWidth=0.5;swimlaneFillColor=#efefff;" parent="1" vertex="1">
          <mxGeometry x="653" y="294" width="60" height="24" as="geometry" />
        </mxCell>
        <mxCell id="G6fozAkBuVMYMVcLO_uP-3" style="orthogonalLoop=1;jettySize=auto;elbow=vertical;html=1;entryX=0.489;entryY=-0.016;entryDx=0;entryDy=0;fontFamily=Times New Roman;fontSize=16;endArrow=open;endFill=0;endSize=6;sourcePerimeterSpacing=0;targetPerimeterSpacing=6;strokeColor=default;strokeWidth=0.5;startSize=0;entryPerimeter=0;exitX=0.494;exitY=1.021;exitDx=0;exitDy=0;exitPerimeter=0;" parent="1" source="PNgQcuH5O2GfZtA-ZD3K-19" target="G6fozAkBuVMYMVcLO_uP-1" edge="1">
          <mxGeometry x="337" y="343" as="geometry">
            <mxPoint x="547" y="228" as="sourcePoint" />
            <mxPoint x="546.5839999999998" y="277.096" as="targetPoint" />
          </mxGeometry>
        </mxCell>
        <mxCell id="G6fozAkBuVMYMVcLO_uP-4" value="hasRule" style="edgeLabel;html=1;align=center;verticalAlign=middle;resizable=0;points=[];" parent="G6fozAkBuVMYMVcLO_uP-3" vertex="1" connectable="0">
          <mxGeometry relative="1" as="geometry">
            <mxPoint y="-4" as="offset" />
          </mxGeometry>
        </mxCell>
        <mxCell id="G6fozAkBuVMYMVcLO_uP-5" style="orthogonalLoop=1;jettySize=auto;elbow=vertical;html=1;fontFamily=Times New Roman;fontSize=16;endArrow=open;endFill=0;endSize=6;sourcePerimeterSpacing=0;targetPerimeterSpacing=6;strokeColor=default;strokeWidth=0.5;startSize=0;exitX=0.518;exitY=0.987;exitDx=0;exitDy=0;exitPerimeter=0;entryX=0.537;entryY=-0.008;entryDx=0;entryDy=0;entryPerimeter=0;" parent="1" source="PNgQcuH5O2GfZtA-ZD3K-21" target="G6fozAkBuVMYMVcLO_uP-2" edge="1">
          <mxGeometry x="349" y="355" as="geometry">
            <mxPoint x="569.99" y="253.00800000000004" as="sourcePoint" />
            <mxPoint x="684" y="324" as="targetPoint" />
          </mxGeometry>
        </mxCell>
        <mxCell id="G6fozAkBuVMYMVcLO_uP-6" value="hasRule" style="edgeLabel;html=1;align=center;verticalAlign=middle;resizable=0;points=[];" parent="G6fozAkBuVMYMVcLO_uP-5" vertex="1" connectable="0">
          <mxGeometry relative="1" as="geometry">
            <mxPoint y="1" as="offset" />
          </mxGeometry>
        </mxCell>
        <mxCell id="m4yIGxluWG_-EnNocRT2-1" value="&lt;font color=&quot;#000000&quot;&gt;&lt;span style=&quot;font-size: 14px;&quot;&gt;结 论&lt;/span&gt;&lt;/font&gt;" style="ellipse;whiteSpace=wrap;html=1;fontSize=10;fillColor=#F5E9BA;strokeColor=#666666;fontColor=#333333;" parent="1" vertex="1">
          <mxGeometry x="663" y="372" width="48" height="44" as="geometry" />
        </mxCell>
        <mxCell id="m4yIGxluWG_-EnNocRT2-2" value="&lt;font color=&quot;#000000&quot;&gt;&lt;span style=&quot;font-size: 14px;&quot;&gt;结 果&lt;/span&gt;&lt;/font&gt;" style="ellipse;whiteSpace=wrap;html=1;fontSize=10;fillColor=#f5f5f5;strokeColor=#666666;fontColor=#333333;" parent="1" vertex="1">
          <mxGeometry x="535" y="372" width="48" height="44" as="geometry" />
        </mxCell>
        <mxCell id="m4yIGxluWG_-EnNocRT2-3" style="orthogonalLoop=1;jettySize=auto;elbow=vertical;html=1;entryX=0.5;entryY=0;entryDx=0;entryDy=0;fontFamily=Times New Roman;fontSize=16;endArrow=open;endFill=0;endSize=6;sourcePerimeterSpacing=0;targetPerimeterSpacing=6;strokeColor=default;strokeWidth=0.5;startSize=0;exitX=0.517;exitY=0.992;exitDx=0;exitDy=0;exitPerimeter=0;" parent="1" source="G6fozAkBuVMYMVcLO_uP-1" target="m4yIGxluWG_-EnNocRT2-2" edge="1">
          <mxGeometry x="331.01" y="425.99" as="geometry">
            <mxPoint x="560" y="324" as="sourcePoint" />
            <mxPoint x="552.018" y="383.99799999999993" as="targetPoint" />
          </mxGeometry>
        </mxCell>
        <mxCell id="m4yIGxluWG_-EnNocRT2-4" value="hasResult" style="edgeLabel;html=1;align=center;verticalAlign=middle;resizable=0;points=[];" parent="m4yIGxluWG_-EnNocRT2-3" vertex="1" connectable="0">
          <mxGeometry relative="1" as="geometry">
            <mxPoint y="-1" as="offset" />
          </mxGeometry>
        </mxCell>
        <mxCell id="m4yIGxluWG_-EnNocRT2-6" style="orthogonalLoop=1;jettySize=auto;elbow=vertical;html=1;fontFamily=Times New Roman;fontSize=16;endArrow=open;endFill=0;endSize=6;sourcePerimeterSpacing=0;targetPerimeterSpacing=6;strokeColor=default;strokeWidth=0.5;startSize=0;exitX=0.563;exitY=1.008;exitDx=0;exitDy=0;exitPerimeter=0;entryX=0.5;entryY=0;entryDx=0;entryDy=0;" parent="1" source="G6fozAkBuVMYMVcLO_uP-2" target="m4yIGxluWG_-EnNocRT2-1" edge="1">
          <mxGeometry x="343.01" y="437.99" as="geometry">
            <mxPoint x="572.116" y="335.13599999999997" as="sourcePoint" />
            <mxPoint x="572" y="384" as="targetPoint" />
          </mxGeometry>
        </mxCell>
        <mxCell id="m4yIGxluWG_-EnNocRT2-7" value="hasResult" style="edgeLabel;html=1;align=center;verticalAlign=middle;resizable=0;points=[];" parent="m4yIGxluWG_-EnNocRT2-6" vertex="1" connectable="0">
          <mxGeometry relative="1" as="geometry">
            <mxPoint as="offset" />
          </mxGeometry>
        </mxCell>
        <mxCell id="m4yIGxluWG_-EnNocRT2-12" style="orthogonalLoop=1;jettySize=auto;elbow=vertical;html=1;fontFamily=Times New Roman;fontSize=16;endArrow=open;endFill=0;endSize=6;sourcePerimeterSpacing=0;targetPerimeterSpacing=6;strokeColor=default;strokeWidth=0.5;startSize=0;exitX=0.977;exitY=0.379;exitDx=0;exitDy=0;exitPerimeter=0;" parent="1" source="m4yIGxluWG_-EnNocRT2-2" edge="1">
          <mxGeometry x="343.01" y="437.99" as="geometry">
            <mxPoint x="572.0539999999999" y="330.808" as="sourcePoint" />
            <mxPoint x="648" y="324" as="targetPoint" />
          </mxGeometry>
        </mxCell>
      </root>
    </mxGraphModel>
  </diagram>
</mxfile>
